<svg xmlns="http://www.w3.org/2000/svg" width="1280" height="720" viewBox="0 0 1280 720" fill="none">
  <rect width="1280" height="720" fill="#EFF6FF"/>
  <rect x="80" y="80" width="1120" height="560" rx="28" fill="#FFFFFF" stroke="#93C5FD" stroke-width="4"/>
  <text x="130" y="130" fill="#1D4ED8" font-family="Arial, sans-serif" font-size="36" font-weight="700">Dashboard Placeholder</text>
  <text x="130" y="180" fill="#1D4ED8" font-family="Arial, sans-serif" font-size="26">Replace this with the Streamlit dashboard once the mart tables are populated.</text>
  <rect x="130" y="240" width="300" height="110" rx="18" fill="#DBEAFE"/>
  <rect x="480" y="240" width="300" height="110" rx="18" fill="#DBEAFE"/>
  <rect x="830" y="240" width="300" height="110" rx="18" fill="#DBEAFE"/>
  <rect x="130" y="390" width="620" height="180" rx="18" fill="#F8FAFC" stroke="#BFDBFE" stroke-width="3"/>
  <rect x="780" y="390" width="350" height="180" rx="18" fill="#F8FAFC" stroke="#BFDBFE" stroke-width="3"/>
  <path d="M180 520L260 470L340 500L420 430L500 455L580 410L660 445" stroke="#0F766E" stroke-width="8" stroke-linecap="round" stroke-linejoin="round"/>
  <rect x="840" y="500" width="40" height="40" rx="8" fill="#F97316"/>
  <rect x="900" y="470" width="40" height="70" rx="8" fill="#F97316"/>
  <rect x="960" y="440" width="40" height="100" rx="8" fill="#F97316"/>
  <rect x="1020" y="410" width="40" height="130" rx="8" fill="#F97316"/>
</svg>

